<svg width="233" height="27" viewBox="0 0 233 27" fill="none" xmlns="http://www.w3.org/2000/svg">
<path d="M12.672 8.48C12.368 7.92 11.928 7.496 11.352 7.208C10.792 6.904 10.128 6.752 9.36 6.752C8.032 6.752 6.968 7.192 6.168 8.072C5.368 8.936 4.968 10.096 4.968 11.552C4.968 13.104 5.384 14.32 6.216 15.2C7.064 16.064 8.224 16.496 9.696 16.496C10.704 16.496 11.552 16.24 12.24 15.728C12.944 15.216 13.456 14.48 13.776 13.52H8.568V10.496H17.496V14.312C17.192 15.336 16.672 16.288 15.936 17.168C15.216 18.048 14.296 18.76 13.176 19.304C12.056 19.848 10.792 20.12 9.384 20.12C7.72 20.12 6.232 19.76 4.92 19.04C3.624 18.304 2.608 17.288 1.872 15.992C1.152 14.696 0.792 13.216 0.792 11.552C0.792 9.888 1.152 8.408 1.872 7.112C2.608 5.8 3.624 4.784 4.92 4.064C6.216 3.328 7.696 2.96 9.36 2.96C11.376 2.96 13.072 3.448 14.448 4.424C15.84 5.4 16.76 6.752 17.208 8.48H12.672ZM18.9533 13.28C18.9533 11.904 19.2093 10.696 19.7213 9.656C20.2493 8.616 20.9613 7.816 21.8573 7.256C22.7533 6.696 23.7533 6.416 24.8573 6.416C25.8013 6.416 26.6253 6.608 27.3293 6.992C28.0493 7.376 28.6013 7.88 28.9853 8.504V6.608H33.0893V20H28.9853V18.104C28.5853 18.728 28.0253 19.232 27.3053 19.616C26.6013 20 25.7773 20.192 24.8333 20.192C23.7453 20.192 22.7533 19.912 21.8573 19.352C20.9613 18.776 20.2493 17.968 19.7213 16.928C19.2093 15.872 18.9533 14.656 18.9533 13.28ZM28.9853 13.304C28.9853 12.28 28.6973 11.472 28.1213 10.88C27.5613 10.288 26.8733 9.992 26.0573 9.992C25.2413 9.992 24.5453 10.288 23.9693 10.88C23.4093 11.456 23.1293 12.256 23.1293 13.28C23.1293 14.304 23.4093 15.12 23.9693 15.728C24.5453 16.32 25.2413 16.616 26.0573 16.616C26.8733 16.616 27.5613 16.32 28.1213 15.728C28.6973 15.136 28.9853 14.328 28.9853 13.304ZM40.1623 8.504C40.5463 7.88 41.0983 7.376 41.8183 6.992C42.5383 6.608 43.3623 6.416 44.2903 6.416C45.3943 6.416 46.3943 6.696 47.2903 7.256C48.1863 7.816 48.8903 8.616 49.4023 9.656C49.9303 10.696 50.1943 11.904 50.1943 13.28C50.1943 14.656 49.9303 15.872 49.4023 16.928C48.8903 17.968 48.1863 18.776 47.2903 19.352C46.3943 19.912 45.3943 20.192 44.2903 20.192C43.3463 20.192 42.5223 20.008 41.8183 19.64C41.1143 19.256 40.5623 18.752 40.1623 18.128V20H36.0583V2.24H40.1623V8.504ZM46.0183 13.28C46.0183 12.256 45.7303 11.456 45.1543 10.88C44.5943 10.288 43.8983 9.992 43.0663 9.992C42.2503 9.992 41.5543 10.288 40.9783 10.88C40.4183 11.472 40.1383 12.28 40.1383 13.304C40.1383 14.328 40.4183 15.136 40.9783 15.728C41.5543 16.32 42.2503 16.616 43.0663 16.616C43.8823 16.616 44.5783 16.32 45.1543 15.728C45.7303 15.12 46.0183 14.304 46.0183 13.28ZM56.4514 8.84C56.9314 8.104 57.5314 7.528 58.2514 7.112C58.9714 6.68 59.7714 6.464 60.6514 6.464V10.808H59.5234C58.4994 10.808 57.7314 11.032 57.2194 11.48C56.7074 11.912 56.4514 12.68 56.4514 13.784V20H52.3474V6.608H56.4514V8.84ZM64.677 5.216C63.957 5.216 63.365 5.008 62.901 4.592C62.453 4.16 62.229 3.632 62.229 3.008C62.229 2.368 62.453 1.84 62.901 1.424C63.365 0.991999 63.957 0.775999 64.677 0.775999C65.381 0.775999 65.957 0.991999 66.405 1.424C66.869 1.84 67.101 2.368 67.101 3.008C67.101 3.632 66.869 4.16 66.405 4.592C65.957 5.008 65.381 5.216 64.677 5.216ZM66.717 6.608V20H62.613V6.608H66.717ZM82.3151 13.088C82.3151 13.472 82.2911 13.872 82.2431 14.288H72.9551C73.0191 15.12 73.2831 15.76 73.7471 16.208C74.2271 16.64 74.8111 16.856 75.4991 16.856C76.5231 16.856 77.2351 16.424 77.6351 15.56H82.0031C81.7791 16.44 81.3711 17.232 80.7791 17.936C80.2031 18.64 79.4751 19.192 78.5951 19.592C77.7151 19.992 76.7311 20.192 75.6431 20.192C74.3311 20.192 73.1631 19.912 72.1391 19.352C71.1151 18.792 70.3151 17.992 69.7391 16.952C69.1631 15.912 68.8751 14.696 68.8751 13.304C68.8751 11.912 69.1551 10.696 69.7151 9.656C70.2911 8.616 71.0911 7.816 72.1151 7.256C73.1391 6.696 74.3151 6.416 75.6431 6.416C76.9391 6.416 78.0911 6.688 79.0991 7.232C80.1071 7.776 80.8911 8.552 81.4511 9.56C82.0271 10.568 82.3151 11.744 82.3151 13.088ZM78.1151 12.008C78.1151 11.304 77.8751 10.744 77.3951 10.328C76.9151 9.912 76.3151 9.704 75.5951 9.704C74.9071 9.704 74.3231 9.904 73.8431 10.304C73.3791 10.704 73.0911 11.272 72.9791 12.008H78.1151ZM88.5842 2.24V20H84.4802V2.24H88.5842ZM115.724 3.152V20H111.62V9.896L107.852 20H104.54L100.748 9.872V20H96.6443V3.152H101.492L106.22 14.816L110.9 3.152H115.724ZM117.86 13.28C117.86 11.904 118.116 10.696 118.628 9.656C119.156 8.616 119.868 7.816 120.764 7.256C121.66 6.696 122.66 6.416 123.764 6.416C124.708 6.416 125.532 6.608 126.236 6.992C126.956 7.376 127.508 7.88 127.892 8.504V6.608H131.996V20H127.892V18.104C127.492 18.728 126.932 19.232 126.212 19.616C125.508 20 124.684 20.192 123.74 20.192C122.652 20.192 121.66 19.912 120.764 19.352C119.868 18.776 119.156 17.968 118.628 16.928C118.116 15.872 117.86 14.656 117.86 13.28ZM127.892 13.304C127.892 12.28 127.604 11.472 127.028 10.88C126.468 10.288 125.78 9.992 124.964 9.992C124.148 9.992 123.452 10.288 122.876 10.88C122.316 11.456 122.036 12.256 122.036 13.28C122.036 14.304 122.316 15.12 122.876 15.728C123.452 16.32 124.148 16.616 124.964 16.616C125.78 16.616 126.468 16.32 127.028 15.728C127.604 15.136 127.892 14.328 127.892 13.304ZM140.053 6.416C140.997 6.416 141.821 6.608 142.525 6.992C143.245 7.376 143.797 7.88 144.181 8.504V6.608H148.285V19.976C148.285 21.208 148.037 22.32 147.541 23.312C147.061 24.32 146.317 25.12 145.309 25.712C144.317 26.304 143.077 26.6 141.589 26.6C139.605 26.6 137.997 26.128 136.765 25.184C135.533 24.256 134.829 22.992 134.653 21.392H138.709C138.837 21.904 139.141 22.304 139.621 22.592C140.101 22.896 140.693 23.048 141.397 23.048C142.245 23.048 142.917 22.8 143.413 22.304C143.925 21.824 144.181 21.048 144.181 19.976V18.08C143.781 18.704 143.229 19.216 142.525 19.616C141.821 20 140.997 20.192 140.053 20.192C138.949 20.192 137.949 19.912 137.053 19.352C136.157 18.776 135.445 17.968 134.917 16.928C134.405 15.872 134.149 14.656 134.149 13.28C134.149 11.904 134.405 10.696 134.917 9.656C135.445 8.616 136.157 7.816 137.053 7.256C137.949 6.696 138.949 6.416 140.053 6.416ZM144.181 13.304C144.181 12.28 143.893 11.472 143.317 10.88C142.757 10.288 142.069 9.992 141.253 9.992C140.437 9.992 139.741 10.288 139.165 10.88C138.605 11.456 138.325 12.256 138.325 13.28C138.325 14.304 138.605 15.12 139.165 15.728C139.741 16.32 140.437 16.616 141.253 16.616C142.069 16.616 142.757 16.32 143.317 15.728C143.893 15.136 144.181 14.328 144.181 13.304ZM150.438 13.28C150.438 11.904 150.694 10.696 151.206 9.656C151.734 8.616 152.446 7.816 153.342 7.256C154.238 6.696 155.238 6.416 156.342 6.416C157.286 6.416 158.11 6.608 158.814 6.992C159.534 7.376 160.086 7.88 160.47 8.504V6.608H164.574V20H160.47V18.104C160.07 18.728 159.51 19.232 158.79 19.616C158.086 20 157.262 20.192 156.318 20.192C155.23 20.192 154.238 19.912 153.342 19.352C152.446 18.776 151.734 17.968 151.206 16.928C150.694 15.872 150.438 14.656 150.438 13.28ZM160.47 13.304C160.47 12.28 160.182 11.472 159.606 10.88C159.046 10.288 158.358 9.992 157.542 9.992C156.726 9.992 156.03 10.288 155.454 10.88C154.894 11.456 154.614 12.256 154.614 13.28C154.614 14.304 154.894 15.12 155.454 15.728C156.03 16.32 156.726 16.616 157.542 16.616C158.358 16.616 159.046 16.32 159.606 15.728C160.182 15.136 160.47 14.328 160.47 13.304ZM171.647 2.24V20H167.543V2.24H171.647ZM182.853 6.464C184.389 6.464 185.621 6.976 186.549 8C187.477 9.008 187.941 10.4 187.941 12.176V20H183.861V12.728C183.861 11.832 183.629 11.136 183.165 10.64C182.701 10.144 182.077 9.896 181.293 9.896C180.509 9.896 179.885 10.144 179.421 10.64C178.957 11.136 178.725 11.832 178.725 12.728V20H174.621V2.24H178.725V8.408C179.141 7.816 179.709 7.344 180.429 6.992C181.149 6.64 181.957 6.464 182.853 6.464ZM189.977 13.28C189.977 11.904 190.233 10.696 190.745 9.656C191.273 8.616 191.985 7.816 192.881 7.256C193.777 6.696 194.777 6.416 195.881 6.416C196.825 6.416 197.649 6.608 198.353 6.992C199.073 7.376 199.625 7.88 200.009 8.504V6.608H204.113V20H200.009V18.104C199.609 18.728 199.049 19.232 198.329 19.616C197.625 20 196.801 20.192 195.857 20.192C194.769 20.192 193.777 19.912 192.881 19.352C191.985 18.776 191.273 17.968 190.745 16.928C190.233 15.872 189.977 14.656 189.977 13.28ZM200.009 13.304C200.009 12.28 199.721 11.472 199.145 10.88C198.585 10.288 197.897 9.992 197.081 9.992C196.265 9.992 195.569 10.288 194.993 10.88C194.433 11.456 194.153 12.256 194.153 13.28C194.153 14.304 194.433 15.12 194.993 15.728C195.569 16.32 196.265 16.616 197.081 16.616C197.897 16.616 198.585 16.32 199.145 15.728C199.721 15.136 200.009 14.328 200.009 13.304ZM192.737 5.48C193.121 3.112 194.225 1.928 196.049 1.928C196.401 1.928 196.705 1.984 196.961 2.096C197.233 2.192 197.561 2.344 197.945 2.552C198.233 2.712 198.465 2.832 198.641 2.912C198.817 2.976 199.001 3.008 199.193 3.008C199.785 3.008 200.129 2.648 200.225 1.928H202.337C201.953 4.296 200.849 5.48 199.025 5.48C198.673 5.48 198.361 5.432 198.089 5.336C197.833 5.224 197.513 5.064 197.129 4.856C196.841 4.696 196.609 4.584 196.433 4.52C196.257 4.44 196.073 4.4 195.881 4.4C195.289 4.4 194.937 4.76 194.825 5.48H192.737ZM219.706 13.088C219.706 13.472 219.682 13.872 219.634 14.288H210.346C210.41 15.12 210.674 15.76 211.138 16.208C211.618 16.64 212.202 16.856 212.89 16.856C213.914 16.856 214.626 16.424 215.026 15.56H219.394C219.17 16.44 218.762 17.232 218.17 17.936C217.594 18.64 216.866 19.192 215.986 19.592C215.106 19.992 214.122 20.192 213.034 20.192C211.722 20.192 210.554 19.912 209.53 19.352C208.506 18.792 207.706 17.992 207.13 16.952C206.554 15.912 206.266 14.696 206.266 13.304C206.266 11.912 206.546 10.696 207.106 9.656C207.682 8.616 208.482 7.816 209.506 7.256C210.53 6.696 211.706 6.416 213.034 6.416C214.33 6.416 215.482 6.688 216.49 7.232C217.498 7.776 218.282 8.552 218.842 9.56C219.418 10.568 219.706 11.744 219.706 13.088ZM215.506 12.008C215.506 11.304 215.266 10.744 214.786 10.328C214.306 9.912 213.706 9.704 212.986 9.704C212.298 9.704 211.714 9.904 211.234 10.304C210.77 10.704 210.482 11.272 210.37 12.008H215.506ZM227.319 20.192C226.151 20.192 225.111 19.992 224.199 19.592C223.287 19.192 222.567 18.648 222.039 17.96C221.511 17.256 221.215 16.472 221.151 15.608H225.207C225.255 16.072 225.471 16.448 225.855 16.736C226.239 17.024 226.711 17.168 227.271 17.168C227.783 17.168 228.175 17.072 228.447 16.88C228.735 16.672 228.879 16.408 228.879 16.088C228.879 15.704 228.679 15.424 228.279 15.248C227.879 15.056 227.231 14.848 226.335 14.624C225.375 14.4 224.575 14.168 223.935 13.928C223.295 13.672 222.743 13.28 222.279 12.752C221.815 12.208 221.583 11.48 221.583 10.568C221.583 9.8 221.791 9.104 222.207 8.48C222.639 7.84 223.263 7.336 224.079 6.968C224.911 6.6 225.895 6.416 227.031 6.416C228.711 6.416 230.031 6.832 230.991 7.664C231.967 8.496 232.527 9.6 232.671 10.976H228.879C228.815 10.512 228.607 10.144 228.255 9.872C227.919 9.6 227.471 9.464 226.911 9.464C226.431 9.464 226.063 9.56 225.807 9.752C225.551 9.928 225.423 10.176 225.423 10.496C225.423 10.88 225.623 11.168 226.023 11.36C226.439 11.552 227.079 11.744 227.943 11.936C228.935 12.192 229.743 12.448 230.367 12.704C230.991 12.944 231.535 13.344 231.999 13.904C232.479 14.448 232.727 15.184 232.743 16.112C232.743 16.896 232.519 17.6 232.071 18.224C231.639 18.832 231.007 19.312 230.175 19.664C229.359 20.016 228.407 20.192 227.319 20.192Z" fill="#0B0C12"/>
</svg>
